<?xml version="1.0" encoding="iso-8859-1"?>
<!-- Generator: Adobe Illustrator 19.0.0, SVG Export Plug-In . SVG Version: 6.00 Build 0)  -->
<svg version="1.1" id="Capa_1" xmlns="http://www.w3.org/2000/svg" xmlns:xlink="http://www.w3.org/1999/xlink" x="0px" y="0px"
	 viewBox="0 0 468.28 468.28" style="enable-background:new 0 0 468.28 468.28;" xml:space="preserve">
<path style="fill:#EBF0F3;" d="M430.181,272.285c0,8.741-0.562,17.295-1.686,25.725c-2.372,18.107-7.18,35.403-14.111,51.575
	c-16.858,39.274-46.204,71.867-82.981,92.909c-28.659,16.421-61.815,25.787-97.217,25.787c-7.805,0-15.485-0.437-23.04-1.373
	c-36.902-4.308-70.681-18.919-98.404-40.835c-3.871-3.06-7.68-6.306-11.301-9.74c-17.421-15.922-31.845-34.966-42.584-56.383
	c-11.739-23.477-18.919-49.764-20.355-77.549c-0.25-3.309-0.313-6.681-0.313-10.115c0-30.158,6.806-58.755,19.044-84.231
	c26.099-54.884,77.05-95.656,138.303-107.894c12.488-2.498,25.412-3.809,38.65-3.809
	C342.392,76.351,430.181,164.078,430.181,272.285z"/>
<path style="fill:#44C4A1;" d="M325.595,379.742c1.936,20.917,3.872,41.897,5.807,62.751
	c-28.659,16.421-61.815,25.787-97.217,25.787c-7.805,0-15.485-0.437-23.04-1.373c-36.902-4.308-70.681-18.919-98.404-40.835
	c-3.871-3.06-7.68-6.306-11.301-9.74c0.125-0.375,0.249-0.687,0.437-0.999c3.434-6.494,10.303-9.803,14.236-15.797
	c4.496-6.744,2.998-13.862,13.3-16.297c6.556-1.561,13.924-0.999,19.418-4.933c2.623-1.936,4.495-4.745,7.243-6.431
	c11.988-7.555,25.599,9.803,39.71,9.241c12.301-0.5,21.916-14.611,34.03-12.363c4.246,0.75,8.429,3.497,12.488,2.061
	c2.498-0.874,4.184-3.247,5.495-5.619c7.492-13.362,7.68-30.595,0.438-44.144c-1.936-3.622-4.496-7.243-4.558-11.364
	c-0.188-8.929,10.052-13.737,18.607-16.296c4.37-1.311,9.241-2.623,13.424-0.687c2.311,1.124,4.184,3.184,6.681,3.996
	c7.43,2.435,14.236-7.493,21.979-6.369c8.179,1.249,9.678,12.987,16.483,17.67c3.934,2.622,9.491,2.997,12.114,6.869
	c1.124,1.748,1.436,3.871,1.685,5.931c1.125,10.864-0.498,22.041-4.558,32.156c-1.498,3.746-3.371,7.368-4.308,11.239
	C324.659,369.315,325.096,374.56,325.595,379.742z"/>
<path style="fill:#E56353;" d="M152.979,265.391c5.784,1.668,9.033,7.779,7.249,13.528l-0.034,0.109
	c-0.936,3.184-1.936,6.369-3.995,8.929c-4.059,4.87-11.052,5.807-17.233,7.368c-12.051,2.997-23.165,9.678-31.532,18.919
	c-8.305,9.241-13.736,20.792-21.729,30.345c-6.806,8.117-16.546,15.048-26.849,15.36c-11.739-23.477-18.919-49.764-20.355-77.549
	c-0.25-3.309-0.313-6.681-0.313-10.115c0-30.158,6.806-58.755,19.044-84.231c2.684,0.313,5.745,1.062,9.303,2.248
	c16.675,5.558,33.312,11.233,49.94,16.902c6.9,2.352,9.837,10.495,6.032,16.713c-1.129,1.846-2.261,3.69-3.398,5.534
	c1.724,1.419,3.447,2.829,5.167,4.232c3.78,3.085,3.569,8.918-0.41,11.742c-2.205,1.565-4.411,3.129-6.629,4.694
	C128.468,256.662,140.502,261.793,152.979,265.391z"/>
<g>
	<path style="fill:#64798A;" d="M32.81,282.768c-0.233-3.444-0.294-6.949-0.294-10.456c0-3.391,0.078-6.765,0.244-10.115
		l11.365,0.561c-0.156,3.166-0.233,6.352-0.233,9.554c0,3.247,0.05,6.491,0.272,9.679L32.81,282.768z"/>
	<path style="fill:#64798A;" d="M421.44,238.318c-2.338-12.978-6.049-25.737-11.031-37.924l10.531-4.305
		c5.282,12.923,9.215,26.451,11.698,40.212L421.44,238.318z M50.162,223.668l-10.998-2.899c3.566-13.525,8.565-26.701,14.858-39.16
		l10.154,5.127C58.244,198.486,53.528,210.915,50.162,223.668z M391.756,165.589c-7.393-10.89-15.958-21.06-25.451-30.222
		l7.899-8.187c10.059,9.709,19.13,20.482,26.962,32.022L391.756,165.589z M85.528,153.492l-8.876-7.11
		c8.721-10.901,18.613-20.93,29.395-29.811l7.232,8.782C103.103,133.734,93.766,143.202,85.528,153.492z M335.189,111.01
		c-11.187-7.018-23.124-12.875-35.477-17.405l3.922-10.681c13.092,4.805,25.745,11.012,37.599,18.449L335.189,111.01z
		 M146.223,103.523l-5.266-10.082c12.392-6.471,25.495-11.651,38.943-15.397l3.055,10.959
		C170.268,92.536,157.91,97.421,146.223,103.523z M261.408,83.954c-12.937-1.852-26.323-2.38-39.493-1.541l-0.722-11.354
		c13.936-0.886,28.123-0.33,41.826,1.636L261.408,83.954z"/>
	<path style="fill:#64798A;" d="M434.149,298.721l-11.287-1.45c0.822-6.396,1.339-12.884,1.527-19.285l11.376,0.339
		C435.559,285.099,435.015,291.961,434.149,298.721z"/>
</g>
<g>
	<path style="fill:#2D93BA;" d="M125.422,125.115l27.795-27.795c1.855-1.855,1.854-4.862-0.002-6.715L125.42,62.843
		c-2.991-2.988-8.102-0.869-8.102,3.359l0,55.557C117.319,125.988,122.432,128.106,125.422,125.115z"/>
	<polygon style="fill:#2D93BA;" points="204.218,189.162 239.659,111.547 289.327,111.547 224.352,189.162 	"/>
	<polygon style="fill:#2D93BA;" points="204.218,0 239.659,77.615 289.327,77.615 224.352,0 	"/>
</g>
<path style="fill:#27A2DB;" d="M269.193,119.126c-64.304,0-151.874-11.258-151.874-25.146c0-13.887,87.57-25.146,151.874-25.146
	c64.304,0,80.992,11.258,80.992,25.146S333.497,119.126,269.193,119.126z"/>
<g>
</g>
<g>
</g>
<g>
</g>
<g>
</g>
<g>
</g>
<g>
</g>
<g>
</g>
<g>
</g>
<g>
</g>
<g>
</g>
<g>
</g>
<g>
</g>
<g>
</g>
<g>
</g>
<g>
</g>
</svg>
